<svg width="512" height="512" viewBox="0 0 512 512" fill="none" xmlns="http://www.w3.org/2000/svg">
<rect width="512" height="512" rx="110" fill="#1E6FFF"/>
<rect x="140" y="135" width="80" height="80" rx="20" fill="white"/>
<rect x="292" y="135" width="80" height="80" rx="20" fill="white"/>
<circle cx="180" cy="258" r="12" fill="white"/>
<circle cx="332" cy="258" r="12" fill="white"/>
<path d="M244 205c0-12 8-20 20-20h20c12 0 20 8 20 20v34c0 12-8 20-20 20h-15" stroke="white" stroke-width="25" stroke-linecap="round" stroke-linejoin="round"/>
<rect x="140" y="300" width="80" height="80" rx="20" fill="white"/>
<path d="M292 300h35c14 0 25 11 25 25v30c0 14-11 25-25 25h-35" stroke="white" stroke-width="25" stroke-linecap="round" stroke-linejoin="round"/>
<circle cx="332" cy="390" r="12" fill="white"/>
</svg>